#!OML:ASF Y:\EmotionMaleHayes\Project 1\Capture day 1\Session 1\Male1.ASF
:FULLY-SPECIFIED
:DEGREES
190
root -28.1239 17.0453 1.21784 60.8247 85.3719 61.6667
lowerback 4.52338 1.90518 -7.13317
upperback -0.48129 2.13256 -1.16651
thorax -3.25692 1.18654 2.62824
lowerneck -20.5312 2.54719 5.41387
upperneck 22.9065 2.63222 -2.45309
head 10.9047 1.43471 -1.3752
rclavicle 4.58137e-015 -2.42517e-014
rhumerus -37.1772 3.66057 -90.5769
rradius 30.8454
rwrist 3.37411
rhand -8.2105 -31.7109
rfingers 7.12502
rthumb 17.7063 -60.9247
lclavicle 4.58137e-015 -2.42517e-014
lhumerus -32.7119 -4.59074 90.5441
lradius 22.4595
lwrist -17.0612
lhand -13.5379 -25.5705
lfingers 7.12502
lthumb 12.5746 4.03106
rfemur 10.5106 -7.27314 9.66892
rtibia 3.28177
rfoot -17.2273 -3.09403
rtoes 12.2297
lfemur 11.9112 1.39024 -21.6604
ltibia -2.72217
lfoot -10.6838 10.1108
ltoes -5.89326
191
root -28.1257 17.0489 1.2213 60.0635 85.448 60.9902
lowerback 4.63992 1.93342 -7.06231
upperback -0.449163 2.16563 -1.13863
thorax -3.29072 1.20195 2.61194
lowerneck -20.6049 2.52455 5.33008
upperneck 22.9199 2.60022 -2.36997
head 10.9198 1.42246 -1.33562
rclavicle 2.61402e-014 -3.12092e-014
rhumerus -37.1227 3.50811 -90.4838
rradius 30.7755
rwrist 3.36138
rhand -8.21046 -31.6032
rfingers 7.12502
rthumb 17.7063 -60.817
lclavicle 2.61402e-014 -3.12092e-014
lhumerus -32.7108 -4.91324 90.678
lradius 22.4888
lwrist -16.6777
lhand -13.6951 -25.5004
lfingers 7.12502
lthumb 12.423 4.11044
rfemur 10.6005 -7.1174 9.84912
rtibia 3.26626
rfoot -17.183 -3.22144
rtoes 12.0384
lfemur 12.0005 1.47358 -21.4881
ltibia -2.67511
lfoot -10.812 10.0012
ltoes -5.5072
192
root -28.1252 17.0512 1.22351 59.6305 85.3997 60.5983
lowerback 4.6707 1.95377 -7.10099
upperback -0.435021 2.18854 -1.14851
thorax -3.29675 1.2139 2.62059
lowerneck -20.6522 2.51087 5.29588
upperneck 22.9671 2.58086 -2.33342
head 10.9444 1.41554 -1.31947
rclavicle 1.57118e-014 -2.18663e-015
rhumerus -37.1489 3.37896 -90.4254
rradius 30.7767
rwrist 3.43401
rhand -8.14773 -31.7605
rfingers 7.12502
rthumb 17.7667 -60.9688
lclavicle 1.57118e-014 -2.18663e-015
lhumerus -32.6894 -4.96735 90.6705
lradius 22.4315
lwrist -16.6722
lhand -13.816 -25.586
lfingers 7.12502
lthumb 12.3065 4.03182
rfemur 10.6334 -7.05741 9.83792
rtibia 3.29892
rfoot -17.1636 -3.22953
rtoes 11.9778
lfemur 12.0836 1.48926 -21.5093
ltibia -2.7539
lfoot -10.7931 10.0471
ltoes -4.91882
193
root -28.1256 17.053 1.22447 59.1461 85.294 60.1135
lowerback 4.66779 1.96777 -7.18921
upperback -0.434391 2.20267 -1.15194
thorax -3.2993 1.22264 2.66501
lowerneck -20.6497 2.52102 5.23763
upperneck 22.9448 2.60398 -2.2982
head 10.9352 1.42486 -1.29337
rclavicle 1.91144e-014 5.36719e-015
rhumerus -37.1623 3.4808 -90.4574
rradius 30.8358
rwrist 3.47371
rhand -8.05373 -32.1606
rfingers 7.12502
rthumb 17.8571 -61.3608
lclavicle 1.91144e-014 5.36719e-015
lhumerus -32.7043 -4.70539 90.5915
lradius 22.3632
lwrist -17.1812
lhand -14.1675 -25.804
lfingers 7.12502
lthumb 11.9676 3.83386
rfemur 10.6012 -6.8855 9.79087
rtibia 3.30904
rfoot -17.2197 -3.27354
rtoes 12.5427
lfemur 12.1009 1.38698 -21.6273
ltibia -2.82372
lfoot -10.6751 10.2324
ltoes -4.61423
194
root -28.1258 17.0533 1.22719 58.057 85.3042 58.9871
lowerback 4.62594 1.9848 -7.16471
upperback -0.437381 2.23052 -1.12746
thorax -3.28167 1.23558 2.67577
lowerneck -20.6174 2.51682 5.2156
upperneck 22.8564 2.59877 -2.28059
head 10.8954 1.4214 -1.28419
rclavicle -5.65294e-015 1.15295e-014
rhumerus -37.1278 3.52993 -90.4877
rradius 30.8274
rwrist 3.5115
rhand -8.08369 -32.3399
rfingers 7.12502
rthumb 17.8283 -61.5427
lclavicle -5.65294e-015 1.15295e-014
lhumerus -32.788 -4.80904 90.6492
lradius 22.5557
lwrist -16.8229
lhand -13.973 -25.5766
lfingers 7.12502
lthumb 12.1552 4.05032
rfemur 10.5311 -6.72972 9.93326
rtibia 3.3255
rfoot -17.2753 -3.49456
rtoes 11.907
lfemur 12.0654 1.29951 -21.5532
ltibia -2.81174
lfoot -10.7245 10.3383
ltoes -4.97152
195
root -28.1275 17.0536 1.23147 57.1045 85.4112 58.022
lowerback 4.63456 1.98775 -7.04753
upperback -0.442967 2.23995 -1.1021
thorax -3.28953 1.23844 2.63568
lowerneck -20.547 2.51823 5.29562
upperneck 22.7631 2.59816 -2.36515
head 10.85 1.41662 -1.32854
rclavicle 5.81445e-015 -2.92213e-014
rhumerus -37.1182 3.39853 -90.4592
rradius 30.7777
rwrist 3.66675
rhand -8.07083 -32.2988
rfingers 7.12502
rthumb 17.8407 -61.5004
lclavicle 5.81445e-015 -2.92213e-014
lhumerus -32.9553 -5.11583 90.7449
lradius 22.8639
lwrist -16.4476
lhand -13.7163 -25.2015
lfingers 7.12502
lthumb 12.4027 4.4106
rfemur 10.4983 -6.66832 10.1558
rtibia 3.32755
rfoot -17.3086 -3.67737
rtoes 11.2912
lfemur 12.0377 1.34961 -21.3319
ltibia -2.71915
lfoot -10.9165 10.2675
ltoes -4.81813
196
root -28.1296 17.0541 1.23218 56.5027 85.4856 57.4247
lowerback 4.653 1.96271 -6.91755
upperback -0.438244 2.21235 -1.09102
thorax -3.2874 1.22213 2.57667
lowerneck -20.4777 2.52676 5.33494
upperneck 22.6898 2.61794 -2.43526
head 10.8121 1.41971 -1.35772
rclavicle 1.40827e-014 -1.39149e-015
rhumerus -37.1242 3.32756 -90.4336
rradius 30.7671
rwrist 3.88744
rhand -8.01278 -32.1922
rfingers 7.12502
rthumb 17.8965 -61.3887
lclavicle 1.40827e-014 -1.39149e-015
lhumerus -32.8513 -4.98805 90.667
lradius 22.6004
lwrist -16.7105
lhand -13.8712 -25.3652
lfingers 7.12502
lthumb 12.2533 4.25583
rfemur 10.4785 -6.72401 10.2561
rtibia 3.3525
rfoot -17.3148 -3.62345
rtoes 11.3427
lfemur 12.046 1.38929 -21.207
ltibia -2.68096
lfoot -11.0178 10.2128
ltoes -4.39231
197
root -28.1291 17.054 1.23162 55.693 85.5122 56.6146
lowerback 4.63631 1.93983 -6.85395
upperback -0.433783 2.18739 -1.05669
thorax -3.26975 1.20801 2.57961
lowerneck -20.4428 2.54381 5.27713
upperneck 22.6488 2.65598 -2.41451
head 10.7908 1.43418 -1.33489
rclavicle -7.92033e-017 2.18663e-015
rhumerus -37.1282 3.39597 -90.4189
rradius 30.7615
rwrist 3.97188
rhand -8.02677 -32.114
rfingers 7.12502
rthumb 17.8831 -61.3118
lclavicle -7.92033e-017 2.18663e-015
lhumerus -32.8599 -5.17309 90.7646
lradius 22.5932
lwrist -16.3057
lhand -13.9716 -25.2698
lfingers 7.12502
lthumb 12.1565 4.35701
rfemur 10.4542 -6.98441 10.2306
rtibia 3.42039
rfoot -17.1916 -3.3053
rtoes 11.1788
lfemur 12.0745 1.36749 -21.1541
ltibia -2.72989
lfoot -11.0734 10.2572
ltoes -3.25715
198
root -28.1291 17.0541 1.23344 55.2198 85.5435 56.1352
lowerback 4.64107 1.94276 -6.81993
upperback -0.439907 2.19276 -1.03
thorax -3.27905 1.21049 2.58759
lowerneck -20.4676 2.54376 5.20933
upperneck 22.6603 2.65949 -2.3501
head 10.7979 1.4378 -1.29964
rclavicle -1.52552e-014 1.37161e-014
rhumerus -37.1607 3.47594 -90.4368
rradius 30.8523
rwrist 3.7272
rhand -8.21529 -32.0202
rfingers 7.12502
rthumb 17.7017 -61.2345
lclavicle -1.52552e-014 1.37161e-014
lhumerus -32.9745 -5.53928 90.9683
lradius 22.6943
lwrist -16.0779
lhand -14.4673 -25.0033
lfingers 7.12502
lthumb 11.6785 4.65125
rfemur 10.4512 -7.07647 10.253
rtibia 3.42245
rfoot -17.1847 -3.12593
rtoes 11.5778
lfemur 12.0588 1.34281 -21.0927
ltibia -2.70953
lfoot -11.1176 10.2835
ltoes -2.32036
199
root -28.131 17.0537 1.23579 54.7131 85.6273 55.5905
lowerback 4.64748 1.94451 -6.69863
upperback -0.461062 2.20034 -1.0069
thorax -3.30146 1.21309 2.54269
lowerneck -20.4673 2.52298 5.15388
upperneck 22.6287 2.63954 -2.32254
head 10.784 1.42672 -1.28349
rclavicle 5.35166e-015 1.98785e-015
rhumerus -37.2145 3.52667 -90.4361
rradius 30.9941
rwrist 3.44898
rhand -8.30575 -31.9123
rfingers 7.12502
rthumb 17.6146 -61.1344
lclavicle 5.35166e-015 1.98785e-015
lhumerus -33.0174 -5.71047 91.0561
lradius 22.767
lwrist -15.7845
lhand -14.317 -24.7982
lfingers 7.12502
lthumb 11.8234 4.84801
rfemur 10.4177 -6.86888 10.443
rtibia 3.3648
rfoot -17.3852 -3.25526
rtoes 12.7949
lfemur 11.9966 1.36114 -20.946
ltibia -2.66
lfoot -11.0883 10.2186
ltoes -1.73676
200
root -28.134 17.0534 1.23853 54.5777 85.6323 55.4223
lowerback 4.67253 1.93246 -6.66855
upperback -0.493883 2.18227 -1.00388
thorax -3.34696 1.20548 2.52902
lowerneck -20.3462 2.52483 5.18408
upperneck 22.4869 2.65955 -2.41556
head 10.7114 1.42578 -1.3196
rclavicle -1.19007e-014 -1.09332e-014
rhumerus -37.2507 3.46711 -90.3552
rradius 30.9907
rwrist 3.60116
rhand -7.95337 -32.2068
rfingers 7.12502
rthumb 17.9537 -61.3981
lclavicle -1.19007e-014 -1.09332e-014
lhumerus -33.0767 -5.89332 91.1179
lradius 22.789
lwrist -15.6105
lhand -14.4404 -24.8155
lfingers 7.12502
lthumb 11.7045 4.83753
rfemur 10.3606 -6.93977 10.4472
rtibia 3.38151
rfoot -17.3617 -3.21175
rtoes 13.123
lfemur 11.9499 1.48026 -20.8738
ltibia -2.68064
lfoot -10.8522 10.1602
ltoes -3.69947
201
root -28.1347 17.0505 1.24219 55.6847 85.4966 56.4951
lowerback 4.64045 1.91358 -6.79476
upperback -0.50217 2.15146 -1.07999
thorax -3.33656 1.19231 2.52383
lowerneck -20.2988 2.54513 5.27608
upperneck 22.4347 2.67961 -2.49227
head 10.6868 1.43298 -1.3597
rclavicle 1.02809e-014 -4.37326e-014
rhumerus -37.2598 3.40985 -90.3439
rradius 30.9542
rwrist 3.73054
rhand -7.68197 -32.7347
rfingers 7.12502
rthumb 18.2148 -61.9019
lclavicle 1.02809e-014 -4.37326e-014
lhumerus -33.0907 -6.01475 91.074
lradius 22.7634
lwrist -15.5827
lhand -14.5901 -24.9464
lfingers 7.12502
lthumb 11.56 4.71483
rfemur 10.3167 -7.13805 10.2088
rtibia 3.41532
rfoot -17.2299 -3.03748
rtoes 12.407
lfemur 11.8843 1.63515 -21.0064
ltibia -2.66931
lfoot -10.6454 10.1016
ltoes -4.00724
202
root -28.1337 17.0459 1.24561 56.4306 85.4134 57.169
lowerback 4.52907 1.87849 -6.80424
upperback -0.478311 2.11358 -1.18013
thorax -3.24174 1.1703 2.43261
lowerneck -20.4895 2.58263 5.41875
upperneck 22.5491 2.6936 -2.55779
head 10.7689 1.44285 -1.40406
rclavicle 5.889e-015 5.1684e-015
rhumerus -37.2595 3.54855 -90.5018
rradius 31.0162
rwrist 3.54773
rhand -7.84102 -32.7412
rfingers 7.12502
rthumb 18.0618 -61.9226
lclavicle 5.889e-015 5.1684e-015
lhumerus -33.0177 -5.99895 90.9007
lradius 22.6936
lwrist -15.8185
lhand -14.7305 -25.0497
lfingers 7.12502
lthumb 11.4246 4.61904
rfemur 10.236 -7.15322 10.1063
rtibia 3.43819
rfoot -17.2668 -2.98132
rtoes 12.0657
lfemur 11.7809 1.76298 -21.0677
ltibia -2.60822
lfoot -10.7727 10.0065
ltoes -4.92754
203
root -28.1344 17.0459 1.24865 55.8303 85.4382 56.5879
lowerback 4.53467 1.86827 -6.81853
upperback -0.420812 2.1025 -1.1145
thorax -3.18708 1.16244 2.51054
lowerneck -20.7243 2.60269 5.46391
upperneck 22.6425 2.73439 -2.71364
head 10.8525 1.44389 -1.46077
rclavicle -1.45392e-014 4.77083e-015
rhumerus -37.2907 3.84749 -90.5318
rradius 31.1867
rwrist 3.22844
rhand -8.05988 -32.5143
rfingers 7.12502
rthumb 17.8512 -61.715
lclavicle -1.45392e-014 4.77083e-015
lhumerus -32.874 -5.3863 90.6815
lradius 22.6809
lwrist -16.1835
lhand -14.1218 -25.0027
lfingers 7.12502
lthumb 12.0116 4.63262
rfemur 10.2349 -7.09524 10.1951
rtibia 3.48291
rfoot -17.3005 -3.02848
rtoes 11.9708
lfemur 11.8206 1.82276 -20.9687
ltibia -2.62808
lfoot -10.9221 9.97094
ltoes -4.6668
